<mxfile host="app.diagrams.net" modified="2024-06-20T09:31:24.818Z" agent="Mozilla/5.0 (Windows NT 10.0; Win64; x64) AppleWebKit/537.36 (KHTML, like Gecko) Chrome/126.0.0.0 Safari/537.36" etag="74CyEGXmm4fLa1dGCk1s" version="24.5.5" type="github">
  <diagram name="第 1 页" id="PAKgEMh2x5S0RE_B--pN">
    <mxGraphModel dx="3276" dy="1551" grid="1" gridSize="10" guides="1" tooltips="1" connect="1" arrows="1" fold="1" page="1" pageScale="1" pageWidth="850" pageHeight="1100" math="0" shadow="0">
      <root>
        <mxCell id="0" />
        <mxCell id="1" parent="0" />
        <mxCell id="J0PudwGmoJVlMHtpE4xF-1" value="build_phase" style="rounded=0;whiteSpace=wrap;html=1;" vertex="1" parent="1">
          <mxGeometry x="220" y="100" width="120" height="160" as="geometry" />
        </mxCell>
        <mxCell id="J0PudwGmoJVlMHtpE4xF-2" value="&lt;font style=&quot;font-size: 24px&quot;&gt;仿真平台&lt;/font&gt;" style="text;html=1;align=center;verticalAlign=middle;resizable=0;points=[];autosize=1;" vertex="1" parent="1">
          <mxGeometry x="230" y="52" width="110" height="20" as="geometry" />
        </mxCell>
        <mxCell id="J0PudwGmoJVlMHtpE4xF-3" value="build_phase(uvm_test_top)" style="rounded=0;whiteSpace=wrap;html=1;" vertex="1" parent="1">
          <mxGeometry x="340" y="100" width="150" height="20" as="geometry" />
        </mxCell>
        <mxCell id="J0PudwGmoJVlMHtpE4xF-4" value="build_phase(env)" style="rounded=0;whiteSpace=wrap;html=1;" vertex="1" parent="1">
          <mxGeometry x="340" y="120" width="150" height="20" as="geometry" />
        </mxCell>
        <mxCell id="J0PudwGmoJVlMHtpE4xF-5" value="build_phase(o_agt)" style="rounded=0;whiteSpace=wrap;html=1;" vertex="1" parent="1">
          <mxGeometry x="340" y="200" width="150" height="20" as="geometry" />
        </mxCell>
        <mxCell id="J0PudwGmoJVlMHtpE4xF-6" value="build_phase(i_agt)" style="rounded=0;whiteSpace=wrap;html=1;" vertex="1" parent="1">
          <mxGeometry x="340" y="140" width="150" height="20" as="geometry" />
        </mxCell>
        <mxCell id="J0PudwGmoJVlMHtpE4xF-7" value="build_phase(drv)" style="rounded=0;whiteSpace=wrap;html=1;" vertex="1" parent="1">
          <mxGeometry x="340" y="160" width="150" height="20" as="geometry" />
        </mxCell>
        <mxCell id="J0PudwGmoJVlMHtpE4xF-8" value="build_phase(sqr)" style="rounded=0;whiteSpace=wrap;html=1;" vertex="1" parent="1">
          <mxGeometry x="340" y="180" width="150" height="20" as="geometry" />
        </mxCell>
        <mxCell id="J0PudwGmoJVlMHtpE4xF-9" value="build_phase(mon)" style="rounded=0;whiteSpace=wrap;html=1;" vertex="1" parent="1">
          <mxGeometry x="340" y="220" width="150" height="20" as="geometry" />
        </mxCell>
        <mxCell id="J0PudwGmoJVlMHtpE4xF-10" value="build_phase(scb)" style="rounded=0;whiteSpace=wrap;html=1;" vertex="1" parent="1">
          <mxGeometry x="340" y="240" width="150" height="20" as="geometry" />
        </mxCell>
        <mxCell id="J0PudwGmoJVlMHtpE4xF-11" value="scb" style="rounded=0;whiteSpace=wrap;html=1;" vertex="1" parent="1">
          <mxGeometry x="490" y="240" width="120" height="20" as="geometry" />
        </mxCell>
        <mxCell id="J0PudwGmoJVlMHtpE4xF-12" value="i_agt" style="rounded=0;whiteSpace=wrap;html=1;" vertex="1" parent="1">
          <mxGeometry x="490" y="140" width="120" height="60" as="geometry" />
        </mxCell>
        <mxCell id="J0PudwGmoJVlMHtpE4xF-13" value="o_agt" style="rounded=0;whiteSpace=wrap;html=1;" vertex="1" parent="1">
          <mxGeometry x="490" y="200" width="120" height="40" as="geometry" />
        </mxCell>
        <mxCell id="J0PudwGmoJVlMHtpE4xF-14" value="env" style="rounded=0;whiteSpace=wrap;html=1;" vertex="1" parent="1">
          <mxGeometry x="490" y="120" width="120" height="20" as="geometry" />
        </mxCell>
        <mxCell id="J0PudwGmoJVlMHtpE4xF-15" value="uvm_test_top" style="rounded=0;whiteSpace=wrap;html=1;" vertex="1" parent="1">
          <mxGeometry x="490" y="100" width="120" height="20" as="geometry" />
        </mxCell>
        <mxCell id="J0PudwGmoJVlMHtpE4xF-16" value="connect_phase" style="rounded=0;whiteSpace=wrap;html=1;" vertex="1" parent="1">
          <mxGeometry x="220" y="270" width="120" height="160" as="geometry" />
        </mxCell>
        <mxCell id="J0PudwGmoJVlMHtpE4xF-17" value="connect_phase(uvm_test_top)" style="rounded=0;whiteSpace=wrap;html=1;" vertex="1" parent="1">
          <mxGeometry x="340" y="410" width="170" height="20" as="geometry" />
        </mxCell>
        <mxCell id="J0PudwGmoJVlMHtpE4xF-18" value="connect_phase(env)" style="rounded=0;whiteSpace=wrap;html=1;" vertex="1" parent="1">
          <mxGeometry x="340" y="390" width="170" height="20" as="geometry" />
        </mxCell>
        <mxCell id="J0PudwGmoJVlMHtpE4xF-19" value="connect_phase(mon)" style="rounded=0;whiteSpace=wrap;html=1;" vertex="1" parent="1">
          <mxGeometry x="340" y="330" width="170" height="20" as="geometry" />
        </mxCell>
        <mxCell id="J0PudwGmoJVlMHtpE4xF-20" value="connect_phase(drv)" style="rounded=0;whiteSpace=wrap;html=1;" vertex="1" parent="1">
          <mxGeometry x="340" y="270" width="170" height="20" as="geometry" />
        </mxCell>
        <mxCell id="J0PudwGmoJVlMHtpE4xF-21" value="conenct_phase(sqr)" style="rounded=0;whiteSpace=wrap;html=1;" vertex="1" parent="1">
          <mxGeometry x="340" y="290" width="170" height="20" as="geometry" />
        </mxCell>
        <mxCell id="J0PudwGmoJVlMHtpE4xF-22" value="connect_phase(i_agt)" style="rounded=0;whiteSpace=wrap;html=1;" vertex="1" parent="1">
          <mxGeometry x="340" y="310" width="170" height="20" as="geometry" />
        </mxCell>
        <mxCell id="J0PudwGmoJVlMHtpE4xF-23" value="connect_phase(o_agt)" style="rounded=0;whiteSpace=wrap;html=1;" vertex="1" parent="1">
          <mxGeometry x="340" y="350" width="170" height="20" as="geometry" />
        </mxCell>
        <mxCell id="J0PudwGmoJVlMHtpE4xF-24" value="connect_phase(scb)" style="rounded=0;whiteSpace=wrap;html=1;" vertex="1" parent="1">
          <mxGeometry x="340" y="370" width="170" height="20" as="geometry" />
        </mxCell>
        <mxCell id="J0PudwGmoJVlMHtpE4xF-25" value="scb" style="rounded=0;whiteSpace=wrap;html=1;" vertex="1" parent="1">
          <mxGeometry x="510" y="370" width="120" height="20" as="geometry" />
        </mxCell>
        <mxCell id="J0PudwGmoJVlMHtpE4xF-26" value="i_agt" style="rounded=0;whiteSpace=wrap;html=1;" vertex="1" parent="1">
          <mxGeometry x="510" y="270" width="120" height="60" as="geometry" />
        </mxCell>
        <mxCell id="J0PudwGmoJVlMHtpE4xF-27" value="o_agt" style="rounded=0;whiteSpace=wrap;html=1;" vertex="1" parent="1">
          <mxGeometry x="510" y="330" width="120" height="40" as="geometry" />
        </mxCell>
        <mxCell id="J0PudwGmoJVlMHtpE4xF-28" value="env" style="rounded=0;whiteSpace=wrap;html=1;" vertex="1" parent="1">
          <mxGeometry x="510" y="390" width="120" height="20" as="geometry" />
        </mxCell>
        <mxCell id="J0PudwGmoJVlMHtpE4xF-29" value="uvm_test_top" style="rounded=0;whiteSpace=wrap;html=1;" vertex="1" parent="1">
          <mxGeometry x="510" y="410" width="120" height="20" as="geometry" />
        </mxCell>
        <mxCell id="J0PudwGmoJVlMHtpE4xF-30" value="" style="html=1;shadow=0;dashed=0;align=center;verticalAlign=middle;shape=mxgraph.arrows2.arrow;dy=0.6;dx=40;direction=south;notch=0;" vertex="1" parent="1">
          <mxGeometry x="160" y="100" width="20" height="850" as="geometry" />
        </mxCell>
        <mxCell id="J0PudwGmoJVlMHtpE4xF-31" value="实例化名字典序" style="text;html=1;strokeColor=none;fillColor=none;align=center;verticalAlign=middle;whiteSpace=wrap;rounded=0;" vertex="1" parent="1">
          <mxGeometry x="620" y="140" width="20" height="80" as="geometry" />
        </mxCell>
        <mxCell id="J0PudwGmoJVlMHtpE4xF-32" value="end_of_elaboration_phase" style="rounded=0;whiteSpace=wrap;html=1;" vertex="1" parent="1">
          <mxGeometry x="220" y="440" width="190" height="20" as="geometry" />
        </mxCell>
        <mxCell id="J0PudwGmoJVlMHtpE4xF-33" value="start_of_simulation_phase" style="rounded=0;whiteSpace=wrap;html=1;" vertex="1" parent="1">
          <mxGeometry x="220" y="470" width="190" height="20" as="geometry" />
        </mxCell>
        <mxCell id="J0PudwGmoJVlMHtpE4xF-34" value="extract_phase" style="rounded=0;whiteSpace=wrap;html=1;" vertex="1" parent="1">
          <mxGeometry x="220" y="850" width="120" height="20" as="geometry" />
        </mxCell>
        <mxCell id="J0PudwGmoJVlMHtpE4xF-35" value="run_phase&amp;amp;run-time phase" style="rounded=0;whiteSpace=wrap;html=1;" vertex="1" parent="1">
          <mxGeometry x="220" y="500" width="120" height="340" as="geometry" />
        </mxCell>
        <mxCell id="J0PudwGmoJVlMHtpE4xF-36" value="run_phase(drv)" style="rounded=0;whiteSpace=wrap;html=1;" vertex="1" parent="1">
          <mxGeometry x="970" y="500" width="90" height="320" as="geometry" />
        </mxCell>
        <mxCell id="J0PudwGmoJVlMHtpE4xF-37" value="run_phase(scb)" style="rounded=0;whiteSpace=wrap;html=1;" vertex="1" parent="1">
          <mxGeometry x="1110" y="500" width="90" height="340" as="geometry" />
        </mxCell>
        <mxCell id="J0PudwGmoJVlMHtpE4xF-38" value="pre_main_phase(drv)" style="rounded=0;whiteSpace=wrap;html=1;" vertex="1" parent="1">
          <mxGeometry x="460" y="500" width="130" height="40" as="geometry" />
        </mxCell>
        <mxCell id="J0PudwGmoJVlMHtpE4xF-39" value="pre_main_phase(sqr)" style="rounded=0;whiteSpace=wrap;html=1;" vertex="1" parent="1">
          <mxGeometry x="600" y="500" width="130" height="20" as="geometry" />
        </mxCell>
        <mxCell id="J0PudwGmoJVlMHtpE4xF-40" value="" style="endArrow=none;dashed=1;html=1;dashPattern=1 3;strokeWidth=2;" edge="1" parent="1">
          <mxGeometry width="50" height="50" relative="1" as="geometry">
            <mxPoint x="740" y="514.8299999999999" as="sourcePoint" />
            <mxPoint x="770" y="514.95" as="targetPoint" />
          </mxGeometry>
        </mxCell>
        <mxCell id="J0PudwGmoJVlMHtpE4xF-41" value="pre_main_phase(uvm_test_top)" style="rounded=0;whiteSpace=wrap;html=1;" vertex="1" parent="1">
          <mxGeometry x="770" y="500" width="180" height="30" as="geometry" />
        </mxCell>
        <mxCell id="J0PudwGmoJVlMHtpE4xF-42" value="main_phase(drv)" style="rounded=0;whiteSpace=wrap;html=1;" vertex="1" parent="1">
          <mxGeometry x="460" y="540" width="130" height="30" as="geometry" />
        </mxCell>
        <mxCell id="J0PudwGmoJVlMHtpE4xF-43" value="main_phase(sqr)" style="rounded=0;whiteSpace=wrap;html=1;" vertex="1" parent="1">
          <mxGeometry x="600" y="540" width="130" height="40" as="geometry" />
        </mxCell>
        <mxCell id="J0PudwGmoJVlMHtpE4xF-44" value="main_phase(uvm_test_top)" style="rounded=0;whiteSpace=wrap;html=1;" vertex="1" parent="1">
          <mxGeometry x="770" y="540" width="180" height="30" as="geometry" />
        </mxCell>
        <mxCell id="J0PudwGmoJVlMHtpE4xF-45" value="" style="endArrow=none;dashed=1;html=1;dashPattern=1 3;strokeWidth=2;" edge="1" parent="1">
          <mxGeometry width="50" height="50" relative="1" as="geometry">
            <mxPoint x="740" y="554.8299999999999" as="sourcePoint" />
            <mxPoint x="770" y="554.95" as="targetPoint" />
          </mxGeometry>
        </mxCell>
        <mxCell id="J0PudwGmoJVlMHtpE4xF-46" value="post_main_phase(drv)" style="rounded=0;whiteSpace=wrap;html=1;" vertex="1" parent="1">
          <mxGeometry x="460" y="580" width="130" height="40" as="geometry" />
        </mxCell>
        <mxCell id="J0PudwGmoJVlMHtpE4xF-47" value="post_main_phase(sqr)" style="rounded=0;whiteSpace=wrap;html=1;" vertex="1" parent="1">
          <mxGeometry x="600" y="580" width="130" height="50" as="geometry" />
        </mxCell>
        <mxCell id="J0PudwGmoJVlMHtpE4xF-48" value="post_main_phase(uvm_test_top)" style="rounded=0;whiteSpace=wrap;html=1;" vertex="1" parent="1">
          <mxGeometry x="770" y="580" width="180" height="60" as="geometry" />
        </mxCell>
        <mxCell id="J0PudwGmoJVlMHtpE4xF-49" value="" style="endArrow=none;dashed=1;html=1;dashPattern=1 3;strokeWidth=2;" edge="1" parent="1">
          <mxGeometry width="50" height="50" relative="1" as="geometry">
            <mxPoint x="740" y="599.8299999999999" as="sourcePoint" />
            <mxPoint x="770" y="599.9500000000005" as="targetPoint" />
          </mxGeometry>
        </mxCell>
        <mxCell id="J0PudwGmoJVlMHtpE4xF-50" value="&lt;span&gt;pre_main_phase&lt;/span&gt;" style="rounded=0;whiteSpace=wrap;html=1;" vertex="1" parent="1">
          <mxGeometry x="340" y="500" width="120" height="40" as="geometry" />
        </mxCell>
        <mxCell id="J0PudwGmoJVlMHtpE4xF-51" value="main_phase" style="rounded=0;whiteSpace=wrap;html=1;" vertex="1" parent="1">
          <mxGeometry x="340" y="540" width="120" height="40" as="geometry" />
        </mxCell>
        <mxCell id="J0PudwGmoJVlMHtpE4xF-52" value="post_main_phase" style="rounded=0;whiteSpace=wrap;html=1;" vertex="1" parent="1">
          <mxGeometry x="340" y="580" width="120" height="60" as="geometry" />
        </mxCell>
        <mxCell id="J0PudwGmoJVlMHtpE4xF-53" value="" style="endArrow=none;dashed=1;html=1;dashPattern=1 3;strokeWidth=2;" edge="1" parent="1">
          <mxGeometry width="50" height="50" relative="1" as="geometry">
            <mxPoint x="700" y="689.9999999999998" as="sourcePoint" />
            <mxPoint x="700" y="649.9999999999998" as="targetPoint" />
          </mxGeometry>
        </mxCell>
        <mxCell id="J0PudwGmoJVlMHtpE4xF-54" value="" style="endArrow=none;html=1;" edge="1" parent="1">
          <mxGeometry width="50" height="50" relative="1" as="geometry">
            <mxPoint x="450" y="699.9999999999998" as="sourcePoint" />
            <mxPoint x="960" y="699.9999999999998" as="targetPoint" />
          </mxGeometry>
        </mxCell>
        <mxCell id="J0PudwGmoJVlMHtpE4xF-55" value="post_shutdown_phase(drv)" style="rounded=0;whiteSpace=wrap;html=1;" vertex="1" parent="1">
          <mxGeometry x="470" y="700" width="160" height="60" as="geometry" />
        </mxCell>
        <mxCell id="J0PudwGmoJVlMHtpE4xF-56" value="post_shutdown_phase(uvm_test_top)" style="rounded=0;whiteSpace=wrap;html=1;" vertex="1" parent="1">
          <mxGeometry x="730" y="700" width="220" height="40" as="geometry" />
        </mxCell>
        <mxCell id="J0PudwGmoJVlMHtpE4xF-57" value="" style="endArrow=none;html=1;" edge="1" parent="1">
          <mxGeometry width="50" height="50" relative="1" as="geometry">
            <mxPoint x="450" y="759.9999999999998" as="sourcePoint" />
            <mxPoint x="960" y="759.9999999999998" as="targetPoint" />
          </mxGeometry>
        </mxCell>
        <mxCell id="J0PudwGmoJVlMHtpE4xF-58" value="" style="endArrow=none;html=1;" edge="1" parent="1">
          <mxGeometry width="50" height="50" relative="1" as="geometry">
            <mxPoint x="340" y="840" as="sourcePoint" />
            <mxPoint x="1170" y="840" as="targetPoint" />
          </mxGeometry>
        </mxCell>
        <mxCell id="J0PudwGmoJVlMHtpE4xF-59" value="post_shutdown_phase" style="rounded=0;whiteSpace=wrap;html=1;" vertex="1" parent="1">
          <mxGeometry x="340" y="700" width="130" height="60" as="geometry" />
        </mxCell>
        <mxCell id="J0PudwGmoJVlMHtpE4xF-60" value="" style="endArrow=none;html=1;exitX=0;exitY=0;exitDx=0;exitDy=0;" edge="1" parent="1" source="J0PudwGmoJVlMHtpE4xF-35">
          <mxGeometry width="50" height="50" relative="1" as="geometry">
            <mxPoint x="780" y="470" as="sourcePoint" />
            <mxPoint x="1170" y="499.9999999999998" as="targetPoint" />
          </mxGeometry>
        </mxCell>
        <mxCell id="J0PudwGmoJVlMHtpE4xF-61" value="" style="endArrow=none;html=1;exitX=1;exitY=1;exitDx=0;exitDy=0;entryX=1;entryY=0;entryDx=0;entryDy=0;" edge="1" parent="1" source="J0PudwGmoJVlMHtpE4xF-38" target="J0PudwGmoJVlMHtpE4xF-44">
          <mxGeometry width="50" height="50" relative="1" as="geometry">
            <mxPoint x="800" y="510" as="sourcePoint" />
            <mxPoint x="850" y="460" as="targetPoint" />
          </mxGeometry>
        </mxCell>
        <mxCell id="J0PudwGmoJVlMHtpE4xF-62" value="" style="endArrow=none;html=1;exitX=1;exitY=0;exitDx=0;exitDy=0;entryX=0;entryY=0;entryDx=0;entryDy=0;" edge="1" parent="1" source="J0PudwGmoJVlMHtpE4xF-46" target="J0PudwGmoJVlMHtpE4xF-48">
          <mxGeometry width="50" height="50" relative="1" as="geometry">
            <mxPoint x="600" y="690" as="sourcePoint" />
            <mxPoint x="650" y="640" as="targetPoint" />
          </mxGeometry>
        </mxCell>
        <mxCell id="J0PudwGmoJVlMHtpE4xF-63" value="" style="endArrow=none;html=1;exitX=1;exitY=1;exitDx=0;exitDy=0;entryX=0;entryY=1;entryDx=0;entryDy=0;" edge="1" parent="1" source="J0PudwGmoJVlMHtpE4xF-52" target="J0PudwGmoJVlMHtpE4xF-48">
          <mxGeometry width="50" height="50" relative="1" as="geometry">
            <mxPoint x="570" y="690" as="sourcePoint" />
            <mxPoint x="620" y="640" as="targetPoint" />
          </mxGeometry>
        </mxCell>
        <mxCell id="J0PudwGmoJVlMHtpE4xF-64" value="" style="endArrow=none;html=1;exitX=0;exitY=0;exitDx=0;exitDy=0;" edge="1" parent="1" source="J0PudwGmoJVlMHtpE4xF-3">
          <mxGeometry width="50" height="50" relative="1" as="geometry">
            <mxPoint x="350" y="100" as="sourcePoint" />
            <mxPoint x="340" y="30" as="targetPoint" />
          </mxGeometry>
        </mxCell>
        <mxCell id="J0PudwGmoJVlMHtpE4xF-65" value="" style="endArrow=none;html=1;exitX=0;exitY=0;exitDx=0;exitDy=0;" edge="1" parent="1" source="J0PudwGmoJVlMHtpE4xF-1">
          <mxGeometry width="50" height="50" relative="1" as="geometry">
            <mxPoint x="180" y="60" as="sourcePoint" />
            <mxPoint x="220" y="30" as="targetPoint" />
          </mxGeometry>
        </mxCell>
        <mxCell id="J0PudwGmoJVlMHtpE4xF-66" value="Top-Down" style="text;html=1;align=center;verticalAlign=middle;resizable=0;points=[];autosize=1;" vertex="1" parent="1">
          <mxGeometry x="663" y="173" width="70" height="20" as="geometry" />
        </mxCell>
        <mxCell id="J0PudwGmoJVlMHtpE4xF-67" value="Bottom-up" style="text;html=1;align=center;verticalAlign=middle;resizable=0;points=[];autosize=1;" vertex="1" parent="1">
          <mxGeometry x="658" y="342" width="70" height="20" as="geometry" />
        </mxCell>
        <mxCell id="J0PudwGmoJVlMHtpE4xF-68" value="" style="shape=curlyBracket;whiteSpace=wrap;html=1;rounded=1;flipH=1;" vertex="1" parent="1">
          <mxGeometry x="1200" y="500" width="40" height="340" as="geometry" />
        </mxCell>
        <mxCell id="J0PudwGmoJVlMHtpE4xF-69" value="fork join_none？？" style="text;html=1;strokeColor=none;fillColor=none;align=center;verticalAlign=middle;whiteSpace=wrap;rounded=0;" vertex="1" parent="1">
          <mxGeometry x="1240" y="660" width="120" height="20" as="geometry" />
        </mxCell>
        <mxCell id="J0PudwGmoJVlMHtpE4xF-70" value="check_phase" style="rounded=0;whiteSpace=wrap;html=1;" vertex="1" parent="1">
          <mxGeometry x="220" y="880" width="120" height="20" as="geometry" />
        </mxCell>
        <mxCell id="J0PudwGmoJVlMHtpE4xF-71" value="report_phase" style="rounded=0;whiteSpace=wrap;html=1;" vertex="1" parent="1">
          <mxGeometry x="220" y="910" width="120" height="20" as="geometry" />
        </mxCell>
        <mxCell id="J0PudwGmoJVlMHtpE4xF-72" value="final_phase" style="rounded=0;whiteSpace=wrap;html=1;" vertex="1" parent="1">
          <mxGeometry x="220" y="940" width="120" height="20" as="geometry" />
        </mxCell>
        <mxCell id="J0PudwGmoJVlMHtpE4xF-73" value="" style="endArrow=none;dashed=1;html=1;dashPattern=1 3;strokeWidth=2;" edge="1" parent="1">
          <mxGeometry width="50" height="50" relative="1" as="geometry">
            <mxPoint x="1070" y="679.9999999999998" as="sourcePoint" />
            <mxPoint x="1100" y="680.1200000000003" as="targetPoint" />
          </mxGeometry>
        </mxCell>
        <mxCell id="J0PudwGmoJVlMHtpE4xF-74" value="&lt;h1&gt;说明&lt;/h1&gt;&lt;p&gt;图为各phase运行顺序，包括了不同component同phase运行的顺序，后面会继续补充&lt;/p&gt;&lt;p&gt;其中：&lt;/p&gt;&lt;p&gt;1、自下而上运行的phase顺序还没有进行验证&lt;/p&gt;" style="text;html=1;strokeColor=none;fillColor=none;spacing=5;spacingTop=-20;whiteSpace=wrap;overflow=hidden;rounded=0;" vertex="1" parent="1">
          <mxGeometry x="1460" y="141" width="530" height="120" as="geometry" />
        </mxCell>
        <mxCell id="J0PudwGmoJVlMHtpE4xF-75" style="edgeStyle=orthogonalEdgeStyle;rounded=0;orthogonalLoop=1;jettySize=auto;html=1;entryX=0.5;entryY=0;entryDx=0;entryDy=0;" edge="1" parent="1" source="J0PudwGmoJVlMHtpE4xF-76" target="J0PudwGmoJVlMHtpE4xF-78">
          <mxGeometry relative="1" as="geometry" />
        </mxCell>
        <mxCell id="J0PudwGmoJVlMHtpE4xF-76" value="uvm_top" style="rounded=1;whiteSpace=wrap;html=1;" vertex="1" parent="1">
          <mxGeometry x="915" y="183" width="70" height="18" as="geometry" />
        </mxCell>
        <mxCell id="J0PudwGmoJVlMHtpE4xF-77" style="edgeStyle=orthogonalEdgeStyle;rounded=0;orthogonalLoop=1;jettySize=auto;html=1;entryX=0.5;entryY=0;entryDx=0;entryDy=0;" edge="1" parent="1" source="J0PudwGmoJVlMHtpE4xF-78" target="J0PudwGmoJVlMHtpE4xF-79">
          <mxGeometry relative="1" as="geometry" />
        </mxCell>
        <mxCell id="J0PudwGmoJVlMHtpE4xF-78" value="uvm_test_top" style="rounded=1;whiteSpace=wrap;html=1;" vertex="1" parent="1">
          <mxGeometry x="905" y="217" width="90" height="18" as="geometry" />
        </mxCell>
        <mxCell id="J0PudwGmoJVlMHtpE4xF-79" value="env" style="rounded=1;whiteSpace=wrap;html=1;" vertex="1" parent="1">
          <mxGeometry x="930" y="253" width="40" height="18" as="geometry" />
        </mxCell>
        <mxCell id="J0PudwGmoJVlMHtpE4xF-80" value="i_agt" style="rounded=1;whiteSpace=wrap;html=1;" vertex="1" parent="1">
          <mxGeometry x="875" y="303" width="40" height="18" as="geometry" />
        </mxCell>
        <mxCell id="J0PudwGmoJVlMHtpE4xF-81" value="scb" style="rounded=1;whiteSpace=wrap;html=1;" vertex="1" parent="1">
          <mxGeometry x="930" y="303" width="40" height="18" as="geometry" />
        </mxCell>
        <mxCell id="J0PudwGmoJVlMHtpE4xF-82" value="o_agt" style="rounded=1;whiteSpace=wrap;html=1;" vertex="1" parent="1">
          <mxGeometry x="985" y="303" width="40" height="18" as="geometry" />
        </mxCell>
        <mxCell id="J0PudwGmoJVlMHtpE4xF-83" value="sqr" style="rounded=1;whiteSpace=wrap;html=1;" vertex="1" parent="1">
          <mxGeometry x="855" y="341" width="30" height="18" as="geometry" />
        </mxCell>
        <mxCell id="J0PudwGmoJVlMHtpE4xF-84" value="drv" style="rounded=1;whiteSpace=wrap;html=1;" vertex="1" parent="1">
          <mxGeometry x="905" y="341" width="30" height="18" as="geometry" />
        </mxCell>
        <mxCell id="J0PudwGmoJVlMHtpE4xF-85" value="mon" style="rounded=1;whiteSpace=wrap;html=1;" vertex="1" parent="1">
          <mxGeometry x="990" y="341" width="30" height="18" as="geometry" />
        </mxCell>
        <mxCell id="J0PudwGmoJVlMHtpE4xF-86" value="" style="endArrow=classic;html=1;exitX=0.5;exitY=1;exitDx=0;exitDy=0;entryX=0.431;entryY=-0.013;entryDx=0;entryDy=0;entryPerimeter=0;" edge="1" parent="1" source="J0PudwGmoJVlMHtpE4xF-80" target="J0PudwGmoJVlMHtpE4xF-84">
          <mxGeometry width="50" height="50" relative="1" as="geometry">
            <mxPoint x="905" y="341" as="sourcePoint" />
            <mxPoint x="955" y="291" as="targetPoint" />
          </mxGeometry>
        </mxCell>
        <mxCell id="J0PudwGmoJVlMHtpE4xF-87" value="" style="endArrow=classic;html=1;entryX=0.5;entryY=0;entryDx=0;entryDy=0;exitX=0.5;exitY=1;exitDx=0;exitDy=0;" edge="1" parent="1" source="J0PudwGmoJVlMHtpE4xF-79" target="J0PudwGmoJVlMHtpE4xF-80">
          <mxGeometry width="50" height="50" relative="1" as="geometry">
            <mxPoint x="895" y="253" as="sourcePoint" />
            <mxPoint x="945" y="273" as="targetPoint" />
          </mxGeometry>
        </mxCell>
        <mxCell id="J0PudwGmoJVlMHtpE4xF-88" value="" style="endArrow=classic;html=1;exitX=0.5;exitY=1;exitDx=0;exitDy=0;entryX=0.5;entryY=0;entryDx=0;entryDy=0;" edge="1" parent="1" source="J0PudwGmoJVlMHtpE4xF-79" target="J0PudwGmoJVlMHtpE4xF-81">
          <mxGeometry width="50" height="50" relative="1" as="geometry">
            <mxPoint x="815" y="313" as="sourcePoint" />
            <mxPoint x="865" y="263" as="targetPoint" />
          </mxGeometry>
        </mxCell>
        <mxCell id="J0PudwGmoJVlMHtpE4xF-89" value="" style="endArrow=classic;html=1;exitX=0.5;exitY=1;exitDx=0;exitDy=0;entryX=0.5;entryY=0;entryDx=0;entryDy=0;" edge="1" parent="1" source="J0PudwGmoJVlMHtpE4xF-79" target="J0PudwGmoJVlMHtpE4xF-82">
          <mxGeometry width="50" height="50" relative="1" as="geometry">
            <mxPoint x="825" y="313" as="sourcePoint" />
            <mxPoint x="875" y="263" as="targetPoint" />
          </mxGeometry>
        </mxCell>
        <mxCell id="J0PudwGmoJVlMHtpE4xF-90" value="" style="endArrow=classic;html=1;entryX=0.565;entryY=0.008;entryDx=0;entryDy=0;entryPerimeter=0;exitX=0.445;exitY=1.013;exitDx=0;exitDy=0;exitPerimeter=0;" edge="1" parent="1" source="J0PudwGmoJVlMHtpE4xF-80" target="J0PudwGmoJVlMHtpE4xF-83">
          <mxGeometry width="50" height="50" relative="1" as="geometry">
            <mxPoint x="965" y="378" as="sourcePoint" />
            <mxPoint x="885" y="318" as="targetPoint" />
          </mxGeometry>
        </mxCell>
        <mxCell id="J0PudwGmoJVlMHtpE4xF-91" value="" style="endArrow=classic;html=1;exitX=0.5;exitY=1;exitDx=0;exitDy=0;entryX=0.5;entryY=0;entryDx=0;entryDy=0;" edge="1" parent="1" source="J0PudwGmoJVlMHtpE4xF-82" target="J0PudwGmoJVlMHtpE4xF-85">
          <mxGeometry width="50" height="50" relative="1" as="geometry">
            <mxPoint x="1045" y="358" as="sourcePoint" />
            <mxPoint x="1095" y="308" as="targetPoint" />
          </mxGeometry>
        </mxCell>
        <mxCell id="J0PudwGmoJVlMHtpE4xF-92" value="&lt;h1&gt;示例树型结构图&lt;/h1&gt;" style="text;html=1;strokeColor=none;fillColor=none;spacing=5;spacingTop=-20;whiteSpace=wrap;overflow=hidden;rounded=0;" vertex="1" parent="1">
          <mxGeometry x="850" y="141" width="190" height="30" as="geometry" />
        </mxCell>
      </root>
    </mxGraphModel>
  </diagram>
</mxfile>
